<mxfile host="www.draw.io" modified="2020-01-25T09:46:39.052Z" agent="Mozilla/5.0 (Windows NT 10.0; Win64; x64) AppleWebKit/537.36 (KHTML, like Gecko) Chrome/79.0.3945.130 Safari/537.36" etag="LkGSS75N62vYTlDHA1Wb" version="12.5.7" type="github">
  <diagram name="Page-1" id="74e2e168-ea6b-b213-b513-2b3c1d86103e">
    <mxGraphModel dx="868" dy="482" grid="1" gridSize="10" guides="1" tooltips="1" connect="1" arrows="1" fold="1" page="1" pageScale="1" pageWidth="1100" pageHeight="850" background="#ffffff" math="0" shadow="0">
      <root>
        <mxCell id="0"/>
        <mxCell id="1" parent="0"/>
        <mxCell id="gHqbs6oBX6RPL_D1I5fW-1" value="upload&lt;br&gt;" style="ellipse;whiteSpace=wrap;html=1;" vertex="1" parent="1">
          <mxGeometry x="70" y="420" width="120" height="80" as="geometry"/>
        </mxCell>
        <mxCell id="gHqbs6oBX6RPL_D1I5fW-2" value="" style="line;strokeWidth=2;direction=south;html=1;" vertex="1" parent="1">
          <mxGeometry x="125" y="500" width="10" height="160" as="geometry"/>
        </mxCell>
        <mxCell id="gHqbs6oBX6RPL_D1I5fW-3" value="Id&lt;br&gt;" style="text;html=1;align=center;verticalAlign=middle;resizable=0;points=[];autosize=1;" vertex="1" parent="1">
          <mxGeometry x="135" y="570" width="30" height="20" as="geometry"/>
        </mxCell>
        <mxCell id="gHqbs6oBX6RPL_D1I5fW-4" value="db1 search query&lt;br&gt;" style="html=1;whiteSpace=wrap;comic=1;strokeWidth=2;fontFamily=Comic Sans MS;fontStyle=1;" vertex="1" parent="1">
          <mxGeometry x="70" y="660" width="120" height="60" as="geometry"/>
        </mxCell>
        <mxCell id="gHqbs6oBX6RPL_D1I5fW-5" value="" style="line;strokeWidth=2;direction=west;html=1;" vertex="1" parent="1">
          <mxGeometry x="190" y="535" width="160" height="310" as="geometry"/>
        </mxCell>
        <mxCell id="gHqbs6oBX6RPL_D1I5fW-6" value="output result&lt;br&gt;" style="shape=ext;double=1;rounded=0;whiteSpace=wrap;html=1;" vertex="1" parent="1">
          <mxGeometry x="350" y="650" width="120" height="80" as="geometry"/>
        </mxCell>
        <mxCell id="gHqbs6oBX6RPL_D1I5fW-7" value="Db search 2" style="rounded=0;whiteSpace=wrap;html=1;" vertex="1" parent="1">
          <mxGeometry x="560" y="660" width="120" height="60" as="geometry"/>
        </mxCell>
        <mxCell id="gHqbs6oBX6RPL_D1I5fW-8" style="edgeStyle=orthogonalEdgeStyle;rounded=0;orthogonalLoop=1;jettySize=auto;html=1;exitX=0.5;exitY=0;exitDx=0;exitDy=0;entryX=0.342;entryY=0;entryDx=0;entryDy=0;entryPerimeter=0;" edge="1" parent="1" source="gHqbs6oBX6RPL_D1I5fW-6" target="gHqbs6oBX6RPL_D1I5fW-6">
          <mxGeometry relative="1" as="geometry"/>
        </mxCell>
        <mxCell id="gHqbs6oBX6RPL_D1I5fW-9" value="" style="line;strokeWidth=2;html=1;" vertex="1" parent="1">
          <mxGeometry x="470" y="690" width="90" height="10" as="geometry"/>
        </mxCell>
        <mxCell id="gHqbs6oBX6RPL_D1I5fW-10" value="" style="line;strokeWidth=2;direction=south;html=1;" vertex="1" parent="1">
          <mxGeometry x="615" y="720" width="10" height="160" as="geometry"/>
        </mxCell>
        <mxCell id="gHqbs6oBX6RPL_D1I5fW-11" value="result in html" style="shape=ext;double=1;rounded=1;whiteSpace=wrap;html=1;" vertex="1" parent="1">
          <mxGeometry x="505" y="880" width="120" height="80" as="geometry"/>
        </mxCell>
      </root>
    </mxGraphModel>
  </diagram>
</mxfile>
